<?xml version="1.0" encoding="UTF-8" standalone="no"?><!DOCTYPE svg PUBLIC "-//W3C//DTD SVG 1.1//EN" "http://www.w3.org/Graphics/SVG/1.1/DTD/svg11.dtd"><svg width="100%" height="100%" viewBox="0 0 125 112" version="1.1" xmlns="http://www.w3.org/2000/svg" xmlns:xlink="http://www.w3.org/1999/xlink" xml:space="preserve" xmlns:serif="http://www.serif.com/" style="fill-rule:evenodd;clip-rule:evenodd;stroke-linejoin:round;stroke-miterlimit:2;"><g><path d="M51.312,68.886l0,-29.299l40.316,-23.282c-0.057,-1.36 0.014,-2.749 0.269,-4.138c-18.833,-3.174 -30.623,-8.573 -35.668,-11.294c-1.771,-0.936 -3.897,-0.936 -5.668,0c-5.045,2.721 -16.821,8.12 -35.682,11.294c1.8,9.991 -4.889,19.527 -14.879,21.2l4.917,26.995c-0,-0 7.836,51.637 48.478,51.637c15.815,-0 26.656,-7.822 34.01,-17.372l-31.841,-18.377c-2.631,-1.519 -4.252,-4.326 -4.252,-7.364Z" style="fill:#3b4652;fill-rule:nonzero;"/><path d="M123.931,93.814l-7.196,-18.718c-0.856,-2.225 -3.909,-2.465 -5.1,-0.401l-2.955,5.117l-46.423,-26.797l-0,12.188c-0,2.025 1.08,3.896 2.835,4.909l36.886,21.292l-2.958,5.122c-1.191,2.064 0.54,4.587 2.894,4.217l19.812,-3.112c1.782,-0.281 2.852,-2.133 2.205,-3.817Z" style="fill:#2b78c2;fill-rule:nonzero;"/><path d="M79.966,50.144l38.527,-22.242c2.072,-1.196 3.347,-3.406 3.347,-5.798c-0,-5.153 -5.578,-8.374 -10.041,-5.797l-45.225,26.115l13.392,7.722Z" style="fill:#2b78c2;fill-rule:nonzero;"/></g></svg>